{"asset":{"version":"2.0","generator":"THREE.GLTFExporter"},"scenes":[{"nodes":[0],"name":"AuxScene"}],"scene":0,"nodes":[{"mesh":0}],"bufferViews":[{"buffer":0,"byteOffset":0,"byteLength":34128,"target":34962,"byteStride":12},{"buffer":0,"byteOffset":34128,"byteLength":34128,"target":34962,"byteStride":12}],"buffers":[{"byteLength":68256,"uri":"data:application/octet-stream;base64,"}],"accessors":[{"bufferView":0,"componentType":5126,"count":2844,"max":[100.61190795898438,2.7959749698638916,100.61190795898438],"min":[-100.68809509277344,0.19596900045871735,-100.98809051513672],"type":"VEC3"},{"bufferView":1,"componentType":5126,"count":2844,"max":[0.6874671578407288,1,0.8313605189323425],"min":[-0.842454731464386,0.12310536950826645,-0.9847300052642822],"type":"VEC3"}],"materials":[{"pbrMetallicRoughness":{"baseColorFactor":[0.5019607843137255,0.5019607843137255,0.5019607843137255,1],"metallicFactor":0,"roughnessFactor":1}}],"meshes":[{"primitives":[{"mode":4,"attributes":{"POSITION":0,"NORMAL":1},"material":0}]}]}